<?xml version="1.0" standalone="no"?>
<svg style="width: 100vw; height: 100vh;" xmlns="http://www.w3.org/2000/svg" xmlns:xlink="http://www.w3.org/1999/xlink" id="networkNavigatorSvg"><rect class="background" width="100%" height="100%" fill="#fff"/><g id="network" transform="translate(-13.10205889146755,-32.27939275539035) scale(1.1297472145701226)"><g class="network"><g class="links"><path class="link" style="fill: rgb(145, 196, 244);" d=""/><path class="link" style="fill: rgb(145, 196, 244);" d=""/><path class="link" style="fill: rgb(145, 196, 244);" d=""/><path class="link" style="fill: rgb(145, 196, 244);" d="M601.7744404498881,657.6327121599193L603.6637270256861,659.7662938454503Q762.6362284961301,523.1113669386297,847.0514882748116,341.73496061415057L844.4865475766892,340.49292446755936Q758.9904352107044,520.321221767051,601.7744404498881,657.6327121599193Z"/><path class="link" style="fill: rgb(145, 196, 244);" d=""/><path class="link" style="fill: rgb(145, 196, 244);" d=""/><path class="link" style="fill: rgb(145, 196, 244);" d=""/><path class="link" style="fill: rgb(141, 192, 240);" d=""/><path class="link" style="fill: rgb(141, 192, 240);" d=""/><path class="link" style="fill: rgb(141, 192, 240);" d=""/><path class="link" style="fill: rgb(141, 192, 240);" d=""/><path class="link" style="fill: rgb(141, 192, 240);" d=""/><path class="link" style="fill: rgb(141, 192, 240);" d="M477.9862383297709,591.6937930255701L480.75883662568117,593.2952106548066Q566.8078621085419,450.70343586725096,568.0447693687544,289.04217725607236L564.8441181701995,288.9545893636231Q562.0565830812875,449.3403116064519,477.9862383297709,591.6937930255701Z"/><path class="link" style="fill: rgb(141, 192, 240);" d=""/><path class="link" style="fill: rgb(141, 192, 240);" d="M696.0082078803727,380.00077503872774L694.1556742743038,377.38926992249696Q537.3099626024533,484.68834478539094,357.02757320901856,522.3385504079563L357.6271367616346,525.48376316389Q539.2623571647739,489.2293706186391,696.0082078803727,380.00077503872774Z"/><path class="link" style="fill: rgb(138, 190, 238);" d=""/><path class="link" style="fill: rgb(136, 187, 235);" d=""/><path class="link" style="fill: rgb(136, 187, 235);" d="M600.8760659136499,658.858179006365L604.5621015619242,658.5408269990045Q601.2926973114231,590.4278585620388,602.3594089186423,516.4488017031885L598.6642486524757,516.266149836871Q596.8471203533936,590.4967947852111,600.8760659136499,658.858179006365Z"/><path class="link" style="fill: rgb(136, 187, 235);" d=""/><path class="link" style="fill: rgb(133, 185, 233);" d="M602.1112530392857,656.8465026128395L603.3269144362885,660.5525033925301Q778.8977812936578,606.7010433752265,900.7946900646463,483.0042102445965L898.0729650204727,480.2105590145484Q776.0065614547655,601.8568551546485,602.1112530392857,656.8465026128395Z"/><path class="link" style="fill: rgb(133, 185, 233);" d=""/><path class="link" style="fill: rgb(133, 185, 233);" d=""/><path class="link" style="fill: rgb(133, 185, 233);" d=""/><path class="link" style="fill: rgb(131, 183, 231);" d=""/><path class="link" style="fill: rgb(131, 183, 231);" d="M734.6459647088674,703.0795873742877L737.3501887457122,700.0222755593829Q657.3981972881879,624.8643625070372,602.3592699370382,515.490321236182L598.6643876340798,517.2246303038775Q652.9652139266171,628.1075023933118,734.6459647088674,703.0795873742877Z"/><path class="link" style="fill: rgb(131, 183, 231);" d="M478.5272274482597,590.6369640215061L480.2178475071924,594.3520396588707Q692.6464783019537,501.740334278492,847.2093670444184,342.55976072102277L844.3286688070824,339.66812436068716Q689.3523160544994,496.93897073289327,478.5272274482597,590.6369640215061Z"/><path class="link" style="fill: rgb(131, 183, 231);" d="M568.4390052758645,288.5662719920271L564.4498822630894,289.43049462766834Q609.2682302047999,513.7394327436101,734.2780261779258,702.6493038542268L737.7181272766538,700.4525590794439Q614.6538877428716,511.5259988294916,568.4390052758645,288.5662719920271Z"/><path class="link" style="fill: rgb(131, 183, 231);" d="M567.3075175868315,287.1490322399996L565.5813699521224,290.84773437969585Q700.6726623537912,357.81155339405194,845.9247259257032,343.14882602953486L845.6133099257976,339.07905905217507Q701.731667000107,352.1355897043892,567.3075175868315,287.1490322399996Z"/><path class="link" style="fill: rgb(129, 181, 229);" d=""/><path class="link" style="fill: rgb(129, 181, 229);" d=""/><path class="link" style="fill: rgb(129, 181, 229);" d="M735.6762829841789,703.6506436786556L736.3198704704007,699.4512192550151Q599.8198362241702,674.9049646160772,480.63991461275737,590.789773772967L478.1051603426947,594.1992299074097Q597.5154088162457,680.3276153322677,735.6762829841789,703.6506436786556Z"/><path class="link" style="fill: rgb(129, 181, 229);" d=""/><path class="link" style="fill: rgb(129, 181, 229);" d="M478.2930588442992,590.665002327877L480.4520161111529,594.3240013524997Q620.2737122081993,516.0781133262795,696.9087189809607,379.7791004650809L693.2551631737158,377.6109444961438Q616.0703923568709,511.8372441670822,478.2930588442992,590.665002327877Z"/><path class="link" style="fill: rgb(129, 181, 229);" d="M695.1910851317269,380.81644421166067L694.9727970229495,376.57360074956404Q536.2715950886638,381.0580252996523,398.88065431069043,316.273342628329L396.9766785797278,320.07126926771986Q535.0762141390145,386.9270837949014,695.1910851317269,380.81644421166067Z"/><path class="link" style="fill: rgb(127, 180, 228);" d="M480.56092699612367,590.6408915148081L478.1841479593284,594.3481121655686Q536.1312977052382,635.0278165893606,601.8316910644738,660.7146146941658L603.6064764111003,656.6843913112037Q538.5847748368345,630.4567430269922,480.56092699612367,590.6408915148081Z"/><path class="link" style="fill: rgb(126, 178, 226);" d=""/><path class="link" style="fill: rgb(126, 178, 226);" d=""/><path class="link" style="fill: rgb(126, 178, 226);" d="M601.3545556080381,656.8794572416197L604.083611867536,660.5195487637499Q689.5301537386725,600.7740136026664,742.3214094285432,512.3808260239767L738.495852887782,509.918483336529Q685.2763712088943,596.8044982286488,601.3545556080381,656.8794572416197Z"/><path class="link" style="fill: rgb(126, 178, 226);" d=""/><path class="link" style="fill: rgb(126, 178, 226);" d="M565.8713414556107,286.79700707506L567.0175460833432,291.19975954463547Q638.2869500226343,275.9112041718753,698.160467249947,240.72088737560276L696.0358635422274,236.69794399517448Q636.3221536077825,270.8065465110538,565.8713414556107,286.79700707506Z"/><path class="link" style="fill: rgb(126, 178, 226);" d="M697.342276757403,378.9507297403316L692.8216053972734,378.4393152208931Q669.8246705386482,547.5838075860071,733.8768359327847,702.3724185823609L738.1193175217949,700.7294443513098Q676.0653625576474,546.7929129667922,697.342276757403,378.9507297403316Z"/><path class="link" style="fill: rgb(126, 178, 226);" d="M692.8245064826447,378.41485710101017L697.3393756720318,378.97518786021453Q709.4961229083827,306.6222883522817,699.3611123240322,238.47795339785247L694.8352184681422,238.94087797292477Q704.0364932526496,306.5436528529953,692.8245064826447,378.41485710101017Z"/><path class="link" style="fill: rgb(124, 177, 225);" d=""/><path class="link" style="fill: rgb(124, 177, 225);" d=""/><path class="link" style="fill: rgb(123, 176, 224);" d=""/><path class="link" style="fill: rgb(123, 176, 224);" d=""/><path class="link" style="fill: rgb(123, 176, 224);" d=""/><path class="link" style="fill: rgb(121, 174, 222);" d=""/><path class="link" style="fill: rgb(121, 174, 222);" d=""/><path class="link" style="fill: rgb(120, 173, 221);" d=""/><path class="link" style="fill: rgb(120, 173, 221);" d="M600.3882717438116,657.7102283665031L605.0498957317625,659.6887776388664Q696.4860223898431,454.91252584516815,699.6287865823236,238.794886550738L694.5675442098508,238.62394482003924Q689.8463725750745,453.4204809827446,600.3882717438116,657.7102283665031Z"/><path class="link" style="fill: rgb(120, 173, 221);" d=""/><path class="link" style="fill: rgb(120, 173, 221);" d="M600.3056297474083,659.4653937869203L605.1325377281659,657.9336122184492Q551.3107458110031,474.6964661872235,568.959193936623,289.29398516013083L563.9296936023309,288.7027814595646Q544.538039745285,475.3609961576743,600.3056297474083,659.4653937869203Z"/><path class="link" style="fill: rgb(120, 173, 221);" d="M568.9755603467232,289.06764895386556L563.9133271922307,288.9291176658299Q555.5152382884266,447.46362414308624,477.1799307007077,591.2280799600768L481.5651442547444,593.7609237203Q562.0565830812875,449.3403116064519,568.9755603467232,289.06764895386556Z"/><path class="link" style="fill: rgb(120, 173, 221);" d="M694.8151772254838,376.17704990244636L695.3487049291926,381.21299505877835Q777.5665243949744,376.0446278263922,846.7418873797856,343.4516495118968L844.7961484717152,338.77623556981314Q776.0871898059947,370.113009968379,694.8151772254838,376.17704990244636Z"/><path class="link" style="fill: rgb(119, 172, 220);" d=""/><path class="link" style="fill: rgb(119, 172, 220);" d="M696.0024582502426,381.1158093507533L694.1614239044338,376.2742356104714Q598.0774282996073,408.77191539553655,501.1619700360859,410.2142079142716L501.0378497098858,415.3925124524055Q599.1997367884949,415.1547441985627,696.0024582502426,381.1158093507533Z"/><path class="link" style="fill: rgb(117, 171, 219);" d=""/><path class="link" style="fill: rgb(117, 171, 219);" d="M478.30895684227283,594.917007004989L480.43611811317925,590.0719966753877Q413.3984823694152,556.8149106497583,358.875834925559,521.7659423639376L355.77887504509414,526.0563712079087Q410.37208681356367,562.2004309625374,478.30895684227283,594.917007004989Z"/><path class="link" style="fill: rgb(117, 171, 219);" d=""/><path class="link" style="fill: rgb(117, 171, 219);" d=""/><path class="link" style="fill: rgb(117, 171, 219);" d=""/><path class="link" style="fill: rgb(117, 171, 219);" d="M600.4816433632033,657.2875555490664L604.9565241123709,660.1114504563031Q691.4697364960035,530.7571915445209,697.7214840431872,378.8754330485812L692.4423981114893,378.5146119126435Q684.8381329967724,528.569677091931,600.4816433632033,657.2875555490664Z"/><path class="link" style="fill: rgb(116, 169, 217);" d="M743.0775274104777,510.74318743316735L737.7397349058475,511.5561219273384Q748.7629309798507,609.4620946077046,733.3566161254504,700.993339575301L738.6395373291292,702.1085233583697Q755.4048395941902,609.6159512412462,743.0775274104777,510.74318743316735Z"/><path class="link" style="fill: rgb(115, 168, 216);" d=""/><path class="link" style="fill: rgb(115, 168, 216);" d="M477.00033085178774,593.8895095019276L481.74474410366435,591.0994941784492Q408.653310053385,458.47193668129376,400.67965216626146,318.09822346005996L395.17768072415674,318.2463884359889Q401.7619532544652,460.51792050168757,477.00033085178774,593.8895095019276Z"/><path class="link" style="fill: rgb(114, 167, 215);" d=""/><path class="link" style="fill: rgb(111, 165, 213);" d=""/><path class="link" style="fill: rgb(111, 165, 213);" d="M739.5046801603507,513.9054774743588L741.3125821559745,508.393831886147Q549.1146476931671,440.6175648076472,399.83824802036446,315.98937560401754L396.01908487005375,320.3552362920313Q545.4124101626095,447.18798453386955,739.5046801603507,513.9054774743588Z"/><path class="link" style="fill: rgb(111, 165, 213);" d="M569.3249026851073,289.3369732009028L563.5639848538466,288.6597934187927Q537.0324000309328,476.097440717529,599.954652043986,659.5767738213419L605.4835154315881,657.8222321840276Q544.538039745285,475.3609961576743,569.3249026851073,289.3369732009028Z"/><path class="link" style="fill: rgb(111, 165, 213);" d=""/><path class="link" style="fill: rgb(110, 164, 212);" d="M742.6768269298395,509.26779443143243L738.1404353864857,513.0315149290733Q783.8715579942981,574.1426508219728,839.0200419853448,611.080842958999L842.576192601029,606.379967187662Q788.6195432530336,569.2580009460384,742.6768269298395,509.26779443143243Z"/><path class="link" style="fill: rgb(110, 164, 212);" d=""/><path class="link" style="fill: rgb(108, 162, 210);" d="M601.9312616772082,661.6334029902639L603.5069057983659,655.7656030151056Q462.4189034197996,613.2465206537362,359.4175456515519,521.7067213218926L355.2371643191012,526.1155922499537Q458.6952613818519,620.025674657732,601.9312616772082,661.6334029902639Z"/><path class="link" style="fill: rgb(108, 162, 210);" d=""/><path class="link" style="fill: rgb(107, 161, 209);" d="M693.6707413205515,381.4345798034515L696.4931408341249,375.9554651577732Q628.3934251996491,336.33061500391665,568.5312268733654,286.7307864858946L564.3576606655885,291.26598013380084Q624.2832258503684,342.22521442944577,693.6707413205515,381.4345798034515Z"/><path class="link" style="fill: rgb(105, 160, 208);" d=""/><path class="link" style="fill: rgb(105, 160, 208);" d="M477.0301573152828,590.3635330257699L481.7149176401693,594.6254706546068Q631.4235414571698,437.14939283992345,700.0645949178,239.8175983445844L694.1317358743744,237.60123302619283Q624.5469852630233,432.9174379784024,477.0301573152828,590.3635330257699Z"/><path class="link" style="fill: rgb(105, 160, 208);" d="M479.14886834209767,589.3357449595154L479.5962066133544,595.6532587208613Q622.6535416141653,590.0904403062765,742.0261380019532,513.8720515146108L738.791124314372,508.4272578458949Q620.2931781628308,582.5160200877347,479.14886834209767,589.3357449595154Z"/><path class="link" style="fill: rgb(105, 160, 208);" d="M743.0713942486917,512.8635583056495L737.7458680676335,509.4357510548563Q679.7184099546907,591.6179583685808,600.8195352139736,656.1658320850023L604.6186322616005,661.2331739203672Q685.2763712088943,596.8044982286488,743.0713942486917,512.8635583056495Z"/><path class="link" style="fill: rgb(104, 159, 207);" d="M598.3945102772855,518.7674192761795L602.6291472938326,513.94753226388Q546.3285513952733,459.11299796250313,503.63086960919725,410.8322924062218L498.56895013677445,414.7744279604553Q541.0851713296266,464.14664120266474,598.3945102772855,518.7674192761795Z"/><path class="link" style="fill: rgb(104, 159, 207);" d=""/><path class="link" style="fill: rgb(104, 159, 207);" d="M568.5756514812875,286.6007138043841L564.3132360576664,291.39605281531135Q711.2107346568234,428.3674139405872,898.4354774463948,484.6560175123248L900.4321776387242,478.55875174682006Q715.2949070734235,421.30654945913375,568.5756514812875,286.6007138043841Z"/><path class="link" style="fill: rgb(103, 158, 206);" d=""/><path class="link" style="fill: rgb(103, 158, 206);" d="M601.2725040422807,519.5156141008448L599.7511535288373,513.1993374392147Q471.7514584513381,539.3315039678242,357.97685350214175,520.7282938860471L356.6778564685114,527.0940196857991Q471.99932138493017,547.3112448323559,601.2725040422807,519.5156141008448Z"/><path class="link" style="fill: rgb(103, 158, 206);" d="M698.2409476849524,377.9379611780735L691.922934469724,379.4520837831512Q704.2401030085597,448.26244565436843,737.4438452349603,512.4772498716925L743.3734170813649,509.82205948881324Q711.1843905275539,445.886072982621,698.2409476849524,377.9379611780735Z"/><path class="link" style="fill: rgb(103, 157, 205);" d="M697.9097492028158,380.3731490481894L692.2541329518607,377.0168959130353Q610.2282283197064,505.9428906169111,477.7015305946065,589.6624807301166L481.0435443608456,595.3265229502601Q616.0703923568709,511.8372441670822,697.9097492028158,380.3731490481894Z"/><path class="link" style="fill: rgb(102, 156, 204);" d=""/><path class="link" style="fill: rgb(101, 155, 203);" d=""/><path class="link" style="fill: rgb(99, 154, 202);" d="M598.730814208803,519.3016648075996L602.292843362315,513.4132867324598Q474.6583239630865,430.51290678136684,400.8826219375866,316.4075371357951L394.97471095283163,319.9370747602537Q468.6891184480001,436.61457690628947,598.730814208803,519.3016648075996Z"/><path class="link" style="fill: rgb(99, 154, 202);" d=""/><path class="link" style="fill: rgb(98, 153, 201);" d=""/><path class="link" style="fill: rgb(97, 152, 200);" d=""/><path class="link" style="fill: rgb(97, 152, 200);" d=""/><path class="link" style="fill: rgb(97, 152, 200);" d="M741.2260337659258,514.5671082616409L739.5912285503995,507.7322010988648Q545.7133408443203,548.8840209677367,357.9458440415505,520.4521674405433L356.7088659291026,527.3701461313029Q546.0052919778772,557.6479589349889,741.2260337659258,514.5671082616409Z"/><path class="link" style="fill: rgb(94, 149, 197);" d="M737.7150697265453,508.6811299420533L743.10219258978,513.6181794184524Q819.4234220209903,437.46693989946164,849.1992116861039,342.3719800345058L842.3388241653969,339.85590504720415Q812.0962877083435,432.92677774549225,737.7150697265453,508.6811299420533Z"/><path class="link" style="fill: rgb(93, 148, 196);" d="M740.2526125119153,507.4321232954398L740.5646498044099,514.867186065066Q828.1164755165934,515.9143582275423,900.6810091183153,485.11294015361455L898.1866459668037,478.1018291055303Q826.5596551495047,507.5340386316958,740.2526125119153,507.4321232954398Z"/><path class="link" style="fill: rgb(93, 148, 196);" d="M738.112529432072,514.0775034260885L742.7047328842532,508.22180593441726Q631.8336508672945,414.7787685523232,569.8461532819192,287.49081778622804L563.0427342570347,290.5059488334674Q624.6728037628855,420.38634819770846,738.112529432072,514.0775034260885Z"/><path class="link" style="fill: rgb(91, 147, 195);" d="M477.59087931215294,589.1534945239815L481.15419564329915,595.8355091563952Q544.6423513830005,567.0987702670556,602.7335043037607,519.423547132168L598.2901532673574,513.2914044078915Q540.2124154345702,560.0504347983517,477.59087931215294,589.1534945239815Z"/><path class="link" style="fill: rgb(85, 141, 189);" d="M570.1600343755149,287.3517123413069L562.728853163439,290.64505427838856Q616.9713432573282,426.41727617885624,737.9006645099922,514.3476606405314L742.916597806333,507.95164871997434Q624.6728037628855,420.38634819770846,570.1600343755149,287.3517123413069Z"/><path class="link" style="fill: rgb(84, 140, 188);" d="M569.2163679117227,285.9862799582904L563.6725196272312,292.010486661405Q619.0156152870753,349.77970304706747,693.2074105293002,382.3340423040401L696.9564716253763,375.0560026571846Q624.2832258503684,342.22521442944577,569.2163679117227,285.9862799582904Z"/><path class="link" style="fill: rgb(84, 140, 188);" d="M699.1658626019253,378.97415512263547L690.9980195527512,378.41588983858924Q675.4567699087556,525.4751212514907,599.257298487853,656.514926857487L606.1808689877212,660.8840791478825Q684.8381329967724,528.569677091931,699.1658626019253,378.97415512263547Z"/><path class="link" style="fill: rgb(83, 140, 188);" d="M598.9765606360367,512.5315194056362L602.0470969350814,520.1834321344232Q757.7129155468459,463.7050759972734,848.9572417966581,343.72741129753746L842.5807940548427,338.50047378417247Q751.9217224257034,455.6001735196339,598.9765606360367,512.5315194056362Z"/><path class="link" style="fill: rgb(81, 138, 186);" d="M570.0871073541882,286.89154240986744L562.8017801847657,291.105224209828Q667.7293540153657,484.0588431046547,838.1815618715337,612.026071059839L843.4146727148401,605.4347390868221Q675.4377456249858,477.44447416095517,570.0871073541882,286.89154240986744Z"/><path class="link" style="fill: rgb(81, 137, 185);" d="M475.30196702915345,591.3219762504239L483.44310792629864,593.6670274299529Q515.535314327129,501.39614021698725,505.3294929723544,412.56886745214763L496.8703267736173,413.0378529145295Q505.94731613787974,500.2368064553891,475.30196702915345,591.3219762504239Z"/><path class="link" style="fill: rgb(81, 137, 185);" d="M604.3464927902519,514.5575557699857L596.6771647808662,518.1573957700738Q644.9887770552637,633.9430082948436,733.1915487449477,704.7239049491978L738.8046047096319,698.3779579844728Q652.9652139266171,628.1075023933118,604.3464927902519,514.5575557699857Z"/><path class="link" style="fill: rgb(81, 137, 185);" d="M570.6727706303612,289.25453169061575L562.2161169085927,288.7422349290797Q549.9009402181453,402.35050513364314,596.5182400976096,517.7701361775332L604.5054174735085,514.9448153625262Q559.6663121083773,400.88726616479465,570.6727706303612,289.25453169061575Z"/><path class="link" style="fill: rgb(80, 136, 184);" d="M604.4092733557309,654.7549656734508L601.0288941198432,662.6440403319187Q667.717804733113,696.7817457445375,735.1142949753339,705.7503416041327L736.8818584792457,697.351521329538Q670.6089488117578,687.7895420957907,604.4092733557309,654.7549656734508Z"/><path class="link" style="fill: rgb(79, 136, 184);" d="M602.8891244183667,512.7519554025275L598.1345331527514,519.962996137532Q714.2491554222652,603.2744840043827,840.2759285703858,613.0174355822048L841.3203060159881,604.4433745644562Q717.9062711722534,593.7613639070204,602.8891244183667,512.7519554025275Z"/><path class="link" style="fill: rgb(75, 132, 180);" d="M736.3215763843629,512.9797882566381L744.4956859319624,509.31952110386754Q720.4555024423322,442.71344844328127,699.436735443796,377.65138860931467L690.7271467108804,379.73865635191004Q711.1843905275539,445.886072982621,736.3215763843629,512.9797882566381Z"/><path class="link" style="fill: rgb(74, 131, 179);" d=""/><path class="link" style="fill: rgb(73, 130, 178);" d="M601.0741520610908,511.8117018023096L599.9495055100273,520.9032497377499Q763.6845495815787,547.1913794984437,901.1343503743158,485.86044123988023L897.7333047108032,477.35432801926464Q762.4285214741703,536.3869637389586,601.0741520610908,511.8117018023096Z"/><path class="link" style="fill: rgb(72, 130, 178);" d="M742.7611078965913,515.109066196924L738.056154419734,507.1902431635817Q617.0766441645451,572.1941435409386,479.0472365736278,587.9004550745374L479.6978383818243,597.0885486058394Q620.2931781628308,582.5160200877347,742.7611078965913,515.109066196924Z"/><path class="link" style="fill: rgb(70, 127, 175);" d=""/><path class="link" style="fill: rgb(66, 124, 172);" d="M596.4088791571783,513.7317911891125L604.6147784139398,518.983160350947Q696.6677510274108,386.7201880044462,701.954673909434,239.08722546727307L692.2416568827405,238.33160590350417Q685.875796142085,382.9659554449897,596.4088791571783,513.7317911891125Z"/><path class="link" style="fill: rgb(66, 124, 172);" d="M735.9174726284625,513.0358970381166L744.8997896878627,509.2634123223892Q695.2777035787676,375.13255861520116,701.9477294118072,239.16783037639476L692.2486013803672,238.25100099438248Q684.0335280505875,376.9200716530428,735.9174726284625,513.0358970381166Z"/><path class="link" style="fill: rgb(65, 123, 171);" d="M740.9336603983683,516.0622074105904L739.883601917957,506.23710194991526Q673.7982231664348,507.61918199302715,600.6371078202546,511.41853507440646L600.3865497508634,521.296416465653Q674.193090780678,518.2264428110958,740.9336603983683,516.0622074105904Z"/><path class="link" style="fill: rgb(65, 123, 171);" d="M595.8541146768058,518.005058639733L605.1695428943123,514.7098929003265Q570.8250310792045,399.2152486907981,571.3759325168755,289.29712862897327L561.5129550220784,288.6996379907222Q559.6663121083773,400.88726616479465,595.8541146768058,518.005058639733Z"/><path class="link" style="fill: rgb(62, 120, 168);" d="M699.5888932892207,380.9808271849965L690.5749888654558,376.4092177762282Q649.9834014239875,443.2335692538199,596.713553363082,513.0242153238925L604.310104208036,519.690736216167Q659.1544242274251,449.5337958997025,699.5888932892207,380.9808271849965Z"/><path class="link" style="fill: rgb(60, 118, 166);" d="M739.5889347349936,516.2474973466644L741.2283275813317,506.0518120138413Q610.2094125103645,478.4779891387087,504.15299817994185,408.63940126572527L498.04682156602985,416.96731910095184Q605.6851161998017,489.487082773955,739.5889347349936,516.2474973466644Z"/><path class="link" style="fill: rgb(54, 113, 161);" d="M596.4411573951713,512.7851682289528L604.5825001759467,519.9297833111067Q668.9228813081988,456.2444425645852,699.9121125067682,381.1447552617286L690.2517696479083,376.2452896994961Q659.1544242274251,449.5337958997025,596.4411573951713,512.7851682289528Z"/><path class="link" style="fill: rgb(45, 105, 153);" d="M606.2933486364877,516.6432564438999L594.7303089346303,516.0716950961596Q584.5250048512577,590.687870119691,596.9518404420484,659.196038145446L608.4863270335258,658.2029678599235Q596.8471203533936,590.4967947852111,606.2933486364877,516.6432564438999Z"/><path class="link" style="fill: rgb(41, 101, 149);" d="M600.6637615804992,510.36774998906793L600.3598959906188,522.3472015509915Q674.6661627830179,530.9344946582063,741.0453630749084,517.1073783203267L739.7718992414168,505.1919310401791Q674.193090780678,518.2264428110958,600.6637615804992,510.36774998906793Z"/><path class="link" style="fill: rgb(6, 69, 117);" d="M604.9124933654223,522.4307081264884L596.1111642056958,510.284243413571Q531.8301938314114,546.713738620382,475.84345327149236,585.8766800939253L482.9016216839597,599.1123235864515Q540.2124154345702,560.0504347983517,604.9124933654223,522.4307081264884Z"/></g><g class="nodes"><g id="id-1"><circle r="37.0391217252629" style="fill: rgb(192, 229, 186); stroke: rgb(56, 160, 85); stroke-width: 5px;" cx="600.511828785559" cy="516.3574757700297"/><circle r="0" fill="" cx="600.511828785559" cy="516.3574757700297"/><circle r="0" style="fill: rgb(244, 128, 116);" cx="600.511828785559" cy="516.3574757700297"/></g><g id="id-2"><circle r="31.510803958542468" style="fill: rgb(195, 230, 189); stroke: rgb(97, 182, 114); stroke-width: 3.94308px;" cx="479.37253747772604" cy="592.4945018401884"/><circle r="0" fill="" cx="479.37253747772604" cy="592.4945018401884"/><circle r="0" style="fill: rgb(244, 128, 116);" cx="479.37253747772604" cy="592.4945018401884"/></g><g id="id-3"><circle r="31.251089072305476" style="fill: rgb(195, 230, 189); stroke: rgb(98, 182, 114); stroke-width: 3.92286px;" cx="602.7190837377871" cy="658.6995030026848"/><circle r="0" fill="" cx="602.7190837377871" cy="658.6995030026848"/><circle r="0" style="fill: rgb(244, 128, 116);" cx="602.7190837377871" cy="658.6995030026848"/></g><g id="id-4"><circle r="29.911353317957776" style="fill: rgb(196, 231, 190); stroke: rgb(80, 173, 102); stroke-width: 4.39363px;" cx="740.4086311581626" cy="511.14965468025287"/><circle r="0" fill="" cx="740.4086311581626" cy="511.14965468025287"/><circle r="0" style="fill: rgb(244, 128, 116);" cx="740.4086311581626" cy="511.14965468025287"/></g><g id="id-5"><circle r="27.486523917041602" style="fill: rgb(197, 231, 191); stroke: rgb(100, 183, 116); stroke-width: 3.88178px;" cx="695.0819410773382" cy="378.69502248061235"/><circle r="0" fill="" cx="695.0819410773382" cy="378.69502248061235"/><circle r="0" style="fill: rgb(244, 128, 116);" cx="695.0819410773382" cy="378.69502248061235"/></g><g id="id-6"><circle r="26.440211091837185" style="fill: rgb(197, 232, 191); stroke: rgb(105, 186, 119); stroke-width: 3.74588px;" cx="566.444443769477" cy="288.9983833098477"/><circle r="0" fill="" cx="566.444443769477" cy="288.9983833098477"/><circle r="0" style="fill: rgb(244, 128, 116);" cx="566.444443769477" cy="288.9983833098477"/></g><g id="id-7"><circle r="24.178503247135545" style="fill: rgb(199, 232, 193); stroke: rgb(127, 198, 135); stroke-width: 3.16821px;" cx="735.9980767272898" cy="701.5509314668353"/><circle r="0" fill="" cx="735.9980767272898" cy="701.5509314668353"/><circle r="0" style="fill: rgb(244, 128, 116);" cx="735.9980767272898" cy="701.5509314668353"/></g><g id="id-8"><circle r="22.949496243601132" style="fill: rgb(199, 232, 193); stroke: rgb(111, 189, 123); stroke-width: 3.59282px;" cx="501.09990987298585" cy="412.80336018333855"/><circle r="0" fill="" cx="501.09990987298585" cy="412.80336018333855"/><circle r="0" style="fill: rgb(244, 128, 116);" cx="501.09990987298585" cy="412.80336018333855"/></g><g id="id-9"><circle r="22.940956448035408" style="fill: rgb(199, 232, 193); stroke: rgb(116, 192, 127); stroke-width: 3.46707px;" cx="697.0981653960872" cy="238.70941568538862"/><circle r="0" fill="" cx="697.0981653960872" cy="238.70941568538862"/><circle r="0" style="fill: rgb(244, 128, 116);" cx="697.0981653960872" cy="238.70941568538862"/></g><g id="id-10"><circle r="21.517752788942225" style="fill: rgb(200, 233, 194); stroke: rgb(124, 196, 133); stroke-width: 3.25025px;" cx="357.32735498532656" cy="523.9111567859231"/><circle r="0" fill="" cx="357.32735498532656" cy="523.9111567859231"/><circle r="0" style="fill: rgb(244, 128, 116);" cx="357.32735498532656" cy="523.9111567859231"/></g><g id="id-11"><circle r="21.440279393777587" style="fill: rgb(200, 233, 194); stroke: rgb(116, 192, 127); stroke-width: 3.45266px;" cx="845.7690179257504" cy="341.11394254085496"/><circle r="0" fill="" cx="845.7690179257504" cy="341.11394254085496"/><circle r="0" style="fill: rgb(244, 128, 116);" cx="845.7690179257504" cy="341.11394254085496"/></g><g id="id-12"><circle r="20.93285929658296" style="fill: rgb(200, 233, 194); stroke: rgb(126, 197, 134); stroke-width: 3.21117px;" cx="899.4338275425595" cy="481.60738462957244"/><circle r="0" fill="" cx="899.4338275425595" cy="481.60738462957244"/><circle r="0" style="fill: rgb(244, 128, 116);" cx="899.4338275425595" cy="481.60738462957244"/></g><g id="id-13"><circle r="20.453049498109614" style="fill: rgb(201, 233, 195); stroke: rgb(135, 202, 140); stroke-width: 2.98384px;" cx="397.9286664452091" cy="318.1723059480244"/><circle r="0" fill="" cx="397.9286664452091" cy="318.1723059480244"/><circle r="0" style="fill: rgb(244, 128, 116);" cx="397.9286664452091" cy="318.1723059480244"/></g><g id="id-14"><circle r="19.767097613833094" style="fill: rgb(201, 233, 195); stroke: rgb(129, 198, 136); stroke-width: 3.13956px;" cx="840.7981172931869" cy="608.7304050733305"/><circle r="0" fill="" cx="840.7981172931869" cy="608.7304050733305"/><circle r="0" style="fill: rgb(244, 128, 116);" cx="840.7981172931869" cy="608.7304050733305"/></g></g></g></g><g id="labelsContainer"><g class="network labels"><text class="label" text-anchor="start" style="fill: black; paint-order: stroke; stroke: white; stroke-width: 2px; stroke-linecap: square; stroke-linejoin: round;" x="665.3245069954281" y="551.0740272182604" dx="38.38804334922297" visibility="visible">(0, 80), (0, 155), (0, 3862...</text><text class="label" text-anchor="start" style="fill: black; paint-order: stroke; stroke: white; stroke-width: 2px; stroke-linecap: square; stroke-linejoin: round;" x="528.4677300654051" y="637.0896203466748" dx="32.564599847840306" visibility="visible">(2, 79), (2, 48), (0, 12533...</text><text class="label" text-anchor="start" style="fill: black; paint-order: stroke; stroke: white; stroke-width: 2px; stroke-linecap: square; stroke-linejoin: round;" x="667.8181471295538" y="711.8845360006169" dx="32.29102024726565" visibility="visible">(0, 453), (2, 122), (0, 174...</text><text class="label" text-anchor="start" style="fill: black; paint-order: stroke; stroke: white; stroke-width: 2px; stroke-linecap: square; stroke-linejoin: round;" x="823.372529803144" y="545.1905058481054" dx="30.879763550121332" visibility="visible">(0, 17406), (2, 88), (0, 16...</text><text class="label" text-anchor="start" style="fill: black; paint-order: stroke; stroke: white; stroke-width: 2px; stroke-linecap: square; stroke-linejoin: round;" x="772.1648279386494" y="395.55025406365144" dx="28.32548617089177" visibility="visible">(2, 52), (0, 307), (2, 80),...</text><text class="label" text-anchor="start" style="fill: black; paint-order: stroke; stroke: white; stroke-width: 2px; stroke-linecap: square; stroke-linejoin: round;" x="626.8369736658215" y="294.21572580417876" dx="27.22331659970147" visibility="visible">(0, 131), (0, 18256), (0, 1...</text><text class="label" text-anchor="start" style="fill: black; paint-order: stroke; stroke: white; stroke-width: 2px; stroke-linecap: square; stroke-linejoin: round;" x="818.3897182201555" y="760.2958179483419" dx="24.84086891741722" visibility="visible">(0, 65), (0, 90), (0, 2113)...</text><text class="label" text-anchor="start" style="fill: black; paint-order: stroke; stroke: white; stroke-width: 2px; stroke-linecap: square; stroke-linejoin: round;" x="553.0141685088777" y="434.08405357692345" dx="23.546252155158992" visibility="visible">(0, 8814), (2, 130), (2, 38...</text><text class="label" text-anchor="start" style="fill: black; paint-order: stroke; stroke: white; stroke-width: 2px; stroke-linecap: square; stroke-linejoin: round;" x="774.4426517467047" y="237.401904706839" dx="23.537256468027962" visibility="visible">(0, 15549), (0, 233), (0, 1...</text><text class="label" text-anchor="start" style="fill: black; paint-order: stroke; stroke: white; stroke-width: 2px; stroke-linecap: square; stroke-linejoin: round;" x="390.5875250929146" y="559.607777305717" dx="22.038075985027817" visibility="visible">(0, 130), (0, 17054), (0, 1...</text><text class="label" text-anchor="start" style="fill: black; paint-order: stroke; stroke: white; stroke-width: 2px; stroke-linecap: square; stroke-linejoin: round;" x="942.4031332798571" y="353.0931336811734" dx="21.956466721841558" visibility="visible">(0, 13857), (0, 135), (0, 1...</text><text class="label" text-anchor="start" style="fill: black; paint-order: stroke; stroke: white; stroke-width: 2px; stroke-linecap: square; stroke-linejoin: round;" x="1003.0308024648831" y="511.81520854627075" dx="21.421958324862786" visibility="visible">(2, 131), (0, 9798), (0, 97...</text><text class="label" text-anchor="start" style="fill: black; paint-order: stroke; stroke: white; stroke-width: 2px; stroke-linecap: square; stroke-linejoin: round;" x="436.4567436226109" y="327.1748836427431" dx="20.916534184875815" visibility="visible">(0, 110), (0, 9694), (0, 98...</text><text class="label" text-anchor="start" style="fill: black; paint-order: stroke; stroke: white; stroke-width: 2px; stroke-linecap: square; stroke-linejoin: round;" x="936.7872721363136" y="655.4320868003472" dx="20.19396319469176" visibility="visible">(0, 18097), (2, 105), (2, 7...</text></g></g></svg>