<?xml version="1.0" encoding="UTF-8" standalone="no"?>
<svg
   id="networkNavigatorSvg"
   version="1.1"
   sodipodi:docname="library-graph-12.pajek.ftree.svg"
   width="824.32922"
   height="579.87506"
   inkscape:version="1.1.2 (0a00cf5339, 2022-02-04)"
   xmlns:inkscape="http://www.inkscape.org/namespaces/inkscape"
   xmlns:sodipodi="http://sodipodi.sourceforge.net/DTD/sodipodi-0.dtd"
   xmlns="http://www.w3.org/2000/svg"
   xmlns:svg="http://www.w3.org/2000/svg">
  <defs
     id="defs2027" />
  <sodipodi:namedview
     id="namedview2025"
     pagecolor="#ffffff"
     bordercolor="#666666"
     borderopacity="1.0"
     inkscape:pageshadow="2"
     inkscape:pageopacity="0.0"
     inkscape:pagecheckerboard="0"
     showgrid="false"
     fit-margin-top="0"
     fit-margin-left="0"
     fit-margin-right="0"
     fit-margin-bottom="0"
     inkscape:zoom="0.70710678"
     inkscape:cx="434.87067"
     inkscape:cy="284.25692"
     inkscape:window-width="1920"
     inkscape:window-height="1011"
     inkscape:window-x="0"
     inkscape:window-y="32"
     inkscape:window-maximized="1"
     inkscape:current-layer="networkNavigatorSvg" />
  <rect
     class="background"
     width="100%"
     height="100%"
     fill="#ffffff"
     id="rect1638"
     x="-364.44193"
     y="-209.52596" />
  <g
     id="network"
     transform="matrix(1.1297472,0,0,1.1297472,-377.54399,-241.80536)">
    <g
       class="network"
       id="g1990">
      <g
         class="links"
         id="g1888">
        <path
           class="link"
           style="fill:#91c4f4"
           d=""
           id="path1640" />
        <path
           class="link"
           style="fill:#91c4f4"
           d=""
           id="path1642" />
        <path
           class="link"
           style="fill:#91c4f4"
           d=""
           id="path1644" />
        <path
           class="link"
           style="fill:#91c4f4"
           d="m 601.77444,657.63271 1.88929,2.13358 Q 762.63623,523.11137 847.05149,341.73496 l -2.56494,-1.24204 q -85.49611,179.8283 -242.71211,317.13979 z"
           id="path1646" />
        <path
           class="link"
           style="fill:#91c4f4"
           d=""
           id="path1648" />
        <path
           class="link"
           style="fill:#91c4f4"
           d=""
           id="path1650" />
        <path
           class="link"
           style="fill:#91c4f4"
           d=""
           id="path1652" />
        <path
           class="link"
           style="fill:#8dc0f0"
           d=""
           id="path1654" />
        <path
           class="link"
           style="fill:#8dc0f0"
           d=""
           id="path1656" />
        <path
           class="link"
           style="fill:#8dc0f0"
           d=""
           id="path1658" />
        <path
           class="link"
           style="fill:#8dc0f0"
           d=""
           id="path1660" />
        <path
           class="link"
           style="fill:#8dc0f0"
           d=""
           id="path1662" />
        <path
           class="link"
           style="fill:#8dc0f0"
           d="m 477.98624,591.69379 2.7726,1.60142 q 86.04902,-142.59177 87.28593,-304.25303 l -3.20065,-0.0876 q -2.78754,160.38572 -86.85788,302.7392 z"
           id="path1664" />
        <path
           class="link"
           style="fill:#8dc0f0"
           d=""
           id="path1666" />
        <path
           class="link"
           style="fill:#8dc0f0"
           d="m 696.00821,380.00078 -1.85254,-2.61151 Q 537.30996,484.68834 357.02757,522.33855 l 0.59957,3.14521 Q 539.26236,489.22937 696.00821,380.00078 Z"
           id="path1668" />
        <path
           class="link"
           style="fill:#8abeee"
           d=""
           id="path1670" />
        <path
           class="link"
           style="fill:#88bbeb"
           d=""
           id="path1672" />
        <path
           class="link"
           style="fill:#88bbeb"
           d="m 600.87607,658.85818 3.68603,-0.31735 q -3.2694,-68.11297 -2.20269,-142.09203 l -3.69516,-0.18265 q -1.81713,74.23064 2.21182,142.59203 z"
           id="path1674" />
        <path
           class="link"
           style="fill:#88bbeb"
           d=""
           id="path1676" />
        <path
           class="link"
           style="fill:#85b9e9"
           d="m 602.11125,656.8465 1.21566,3.706 Q 778.89778,606.70104 900.79469,483.00421 l -2.72172,-2.79365 Q 776.00656,601.85686 602.11125,656.8465 Z"
           id="path1678" />
        <path
           class="link"
           style="fill:#85b9e9"
           d=""
           id="path1680" />
        <path
           class="link"
           style="fill:#85b9e9"
           d=""
           id="path1682" />
        <path
           class="link"
           style="fill:#85b9e9"
           d=""
           id="path1684" />
        <path
           class="link"
           style="fill:#83b7e7"
           d=""
           id="path1686" />
        <path
           class="link"
           style="fill:#83b7e7"
           d="m 734.64596,703.07959 2.70423,-3.05731 Q 657.3982,624.86436 602.35927,515.49032 l -3.69488,1.73431 q 54.30082,110.88287 135.98157,185.85496 z"
           id="path1688" />
        <path
           class="link"
           style="fill:#83b7e7"
           d="m 478.52723,590.63696 1.69062,3.71508 Q 692.64648,501.74033 847.20937,342.55976 l -2.8807,-2.89164 Q 689.35232,496.93897 478.52723,590.63696 Z"
           id="path1690" />
        <path
           class="link"
           style="fill:#83b7e7"
           d="m 568.43901,288.56627 -3.98913,0.86422 q 44.81835,224.30894 169.82815,413.21881 l 3.4401,-2.19674 Q 614.65389,511.526 568.43901,288.56627 Z"
           id="path1692" />
        <path
           class="link"
           style="fill:#83b7e7"
           d="m 567.30752,287.14903 -1.72615,3.6987 q 135.09129,66.96382 280.34336,52.3011 l -0.31142,-4.06977 Q 701.73167,352.13559 567.30752,287.14903 Z"
           id="path1694" />
        <path
           class="link"
           style="fill:#81b5e5"
           d=""
           id="path1696" />
        <path
           class="link"
           style="fill:#81b5e5"
           d=""
           id="path1698" />
        <path
           class="link"
           style="fill:#81b5e5"
           d="m 735.67628,703.65064 0.64359,-4.19942 Q 599.81984,674.90496 480.63991,590.78977 l -2.53475,3.40946 q 119.41025,86.12839 257.57112,109.45141 z"
           id="path1700" />
        <path
           class="link"
           style="fill:#81b5e5"
           d=""
           id="path1702" />
        <path
           class="link"
           style="fill:#81b5e5"
           d="m 478.29306,590.665 2.15896,3.659 q 139.82169,-78.24589 216.4567,-214.5449 l -3.65356,-2.16816 Q 616.07039,511.83724 478.29306,590.665 Z"
           id="path1704" />
        <path
           class="link"
           style="fill:#81b5e5"
           d="m 695.19109,380.81644 -0.21829,-4.24284 q -158.7012,4.48443 -296.09215,-60.30026 l -1.90397,3.79793 q 138.09953,66.85581 298.21441,60.74517 z"
           id="path1706" />
        <path
           class="link"
           style="fill:#7fb4e4"
           d="m 480.56093,590.64089 -2.37678,3.70722 q 57.94715,40.67971 123.64754,66.3665 l 1.77479,-4.03022 q -65.02171,-26.22765 -123.04555,-66.0435 z"
           id="path1708" />
        <path
           class="link"
           style="fill:#7eb2e2"
           d=""
           id="path1710" />
        <path
           class="link"
           style="fill:#7eb2e2"
           d=""
           id="path1712" />
        <path
           class="link"
           style="fill:#7eb2e2"
           d="m 601.35456,656.87946 2.72905,3.64009 q 85.44654,-59.74554 138.2378,-148.13872 l -3.82556,-2.46235 Q 685.27637,596.8045 601.35456,656.87946 Z"
           id="path1714" />
        <path
           class="link"
           style="fill:#7eb2e2"
           d=""
           id="path1716" />
        <path
           class="link"
           style="fill:#7eb2e2"
           d="m 565.87134,286.79701 1.14621,4.40275 q 71.2694,-15.28856 131.14292,-50.47887 l -2.12461,-4.02295 q -59.71371,34.10861 -130.16452,50.09907 z"
           id="path1718" />
        <path
           class="link"
           style="fill:#7eb2e2"
           d="m 697.34228,378.95073 -4.52067,-0.51141 q -22.99694,169.14449 41.05523,323.9331 l 4.24248,-1.64298 Q 676.06536,546.79291 697.34228,378.95073 Z"
           id="path1720" />
        <path
           class="link"
           style="fill:#7eb2e2"
           d="m 692.82451,378.41486 4.51487,0.56033 q 12.15674,-72.3529 2.02173,-140.49724 l -4.52589,0.46293 q 9.20127,67.60277 -2.01071,139.47398 z"
           id="path1722" />
        <path
           class="link"
           style="fill:#7cb1e1"
           d=""
           id="path1724" />
        <path
           class="link"
           style="fill:#7cb1e1"
           d=""
           id="path1726" />
        <path
           class="link"
           style="fill:#7bb0e0"
           d=""
           id="path1728" />
        <path
           class="link"
           style="fill:#7bb0e0"
           d=""
           id="path1730" />
        <path
           class="link"
           style="fill:#7bb0e0"
           d=""
           id="path1732" />
        <path
           class="link"
           style="fill:#79aede"
           d=""
           id="path1734" />
        <path
           class="link"
           style="fill:#79aede"
           d=""
           id="path1736" />
        <path
           class="link"
           style="fill:#78addd"
           d=""
           id="path1738" />
        <path
           class="link"
           style="fill:#78addd"
           d="m 600.38827,657.71023 4.66163,1.97855 q 91.43612,-204.77625 94.57889,-420.89389 l -5.06125,-0.17095 q -4.72117,214.79654 -94.17927,419.08629 z"
           id="path1740" />
        <path
           class="link"
           style="fill:#78addd"
           d=""
           id="path1742" />
        <path
           class="link"
           style="fill:#78addd"
           d="m 600.30563,659.46539 4.82691,-1.53178 Q 551.31075,474.69647 568.95919,289.29399 l -5.0295,-0.59121 Q 544.53804,475.361 600.30563,659.46539 Z"
           id="path1744" />
        <path
           class="link"
           style="fill:#78addd"
           d="m 568.97556,289.06765 -5.06223,-0.13853 q -8.39809,158.5345 -86.7334,302.29896 l 4.38521,2.53284 q 80.49144,-144.42061 87.41042,-304.69327 z"
           id="path1746" />
        <path
           class="link"
           style="fill:#78addd"
           d="m 694.81518,376.17705 0.53352,5.03595 q 82.21782,-5.16837 151.39319,-37.76135 l -1.94574,-4.67541 q -68.70896,31.33677 -149.98097,37.40081 z"
           id="path1748" />
        <path
           class="link"
           style="fill:#77acdc"
           d=""
           id="path1750" />
        <path
           class="link"
           style="fill:#77acdc"
           d="m 696.00246,381.11581 -1.84104,-4.84157 q -96.08399,32.49768 -192.99945,33.93997 l -0.12412,5.1783 q 98.16189,-0.23777 194.96461,-34.2767 z"
           id="path1752" />
        <path
           class="link"
           style="fill:#75abdb"
           d=""
           id="path1754" />
        <path
           class="link"
           style="fill:#75abdb"
           d="m 478.30896,594.91701 2.12716,-4.84501 Q 413.39848,556.81491 358.87583,521.76594 l -3.09695,4.29043 q 54.59321,36.14406 122.53008,68.86064 z"
           id="path1756" />
        <path
           class="link"
           style="fill:#75abdb"
           d=""
           id="path1758" />
        <path
           class="link"
           style="fill:#75abdb"
           d=""
           id="path1760" />
        <path
           class="link"
           style="fill:#75abdb"
           d=""
           id="path1762" />
        <path
           class="link"
           style="fill:#75abdb"
           d="m 600.48164,657.28756 4.47488,2.82389 q 86.51322,-129.35426 92.76496,-281.23602 l -5.27908,-0.36082 q -7.60427,150.05507 -91.96076,278.77295 z"
           id="path1764" />
        <path
           class="link"
           style="fill:#74a9d9"
           d="m 743.07753,510.74319 -5.3378,0.81293 q 11.0232,97.90597 -4.38311,189.43722 l 5.28292,1.11518 q 16.7653,-92.49257 4.43799,-191.36533 z"
           id="path1766" />
        <path
           class="link"
           style="fill:#73a8d8"
           d=""
           id="path1768" />
        <path
           class="link"
           style="fill:#73a8d8"
           d="m 477.00033,593.88951 4.74441,-2.79002 Q 408.65331,458.47194 400.67965,318.09822 l -5.50197,0.14817 q 6.58427,142.27153 81.82265,275.64312 z"
           id="path1770" />
        <path
           class="link"
           style="fill:#72a7d7"
           d=""
           id="path1772" />
        <path
           class="link"
           style="fill:#6fa5d5"
           d=""
           id="path1774" />
        <path
           class="link"
           style="fill:#6fa5d5"
           d="m 739.50468,513.90548 1.8079,-5.51165 Q 549.11465,440.61756 399.83825,315.98938 l -3.81917,4.36586 q 149.39333,126.83274 343.4856,193.55024 z"
           id="path1776" />
        <path
           class="link"
           style="fill:#6fa5d5"
           d="m 569.3249,289.33697 -5.76092,-0.67718 q -26.53158,187.43765 36.39067,370.91698 l 5.52887,-1.75454 Q 544.53804,475.361 569.3249,289.33697 Z"
           id="path1778" />
        <path
           class="link"
           style="fill:#6fa5d5"
           d=""
           id="path1780" />
        <path
           class="link"
           style="fill:#6ea4d4"
           d="m 742.67683,509.26779 -4.53639,3.76372 q 45.73112,61.11114 100.8796,98.04933 l 3.55615,-4.70087 Q 788.61954,569.258 742.67683,509.26779 Z"
           id="path1782" />
        <path
           class="link"
           style="fill:#6ea4d4"
           d=""
           id="path1784" />
        <path
           class="link"
           style="fill:#6ca2d2"
           d="m 601.93126,661.6334 1.57565,-5.8678 Q 462.4189,613.24652 359.41755,521.70672 l -4.18039,4.40887 q 103.4581,93.91008 246.6941,135.51781 z"
           id="path1786" />
        <path
           class="link"
           style="fill:#6ca2d2"
           d=""
           id="path1788" />
        <path
           class="link"
           style="fill:#6ba1d1"
           d="m 693.67074,381.43458 2.8224,-5.47911 Q 628.39343,336.33062 568.53123,286.73079 l -4.17357,4.53519 q 59.92557,50.95923 129.31308,90.1686 z"
           id="path1790" />
        <path
           class="link"
           style="fill:#69a0d0"
           d=""
           id="path1792" />
        <path
           class="link"
           style="fill:#69a0d0"
           d="m 477.03016,590.36353 4.68476,4.26194 Q 631.42354,437.14939 700.06459,239.8176 l -5.93285,-2.21637 q -69.58475,195.31621 -217.10158,352.7623 z"
           id="path1794" />
        <path
           class="link"
           style="fill:#69a0d0"
           d="m 479.14887,589.33574 0.44734,6.31752 q 143.05733,-5.56282 262.42993,-81.78121 l -3.23502,-5.44479 q -118.49794,74.08876 -259.64225,80.90848 z"
           id="path1796" />
        <path
           class="link"
           style="fill:#69a0d0"
           d="m 743.07139,512.86356 -5.32552,-3.42781 q -58.02746,82.18221 -136.92633,146.73008 l 3.79909,5.06734 Q 685.27637,596.8045 743.07139,512.86356 Z"
           id="path1798" />
        <path
           class="link"
           style="fill:#689fcf"
           d="m 598.39451,518.76742 4.23464,-4.81989 Q 546.32855,459.113 503.63087,410.83229 l -5.06192,3.94214 q 42.51622,49.37221 99.82556,103.99299 z"
           id="path1800" />
        <path
           class="link"
           style="fill:#689fcf"
           d=""
           id="path1802" />
        <path
           class="link"
           style="fill:#689fcf"
           d="m 568.57565,286.60071 -4.26241,4.79534 q 146.89749,136.97136 334.12224,193.25997 l 1.9967,-6.09727 Q 715.29491,421.30655 568.57565,286.60071 Z"
           id="path1804" />
        <path
           class="link"
           style="fill:#679ece"
           d=""
           id="path1806" />
        <path
           class="link"
           style="fill:#679ece"
           d="m 601.2725,519.51561 -1.52135,-6.31627 q -127.99969,26.13216 -241.7743,7.52895 l -1.29899,6.36573 q 115.32146,20.21722 244.59464,-7.57841 z"
           id="path1808" />
        <path
           class="link"
           style="fill:#679ece"
           d="m 698.24095,377.93796 -6.31802,1.51412 q 12.31717,68.81037 45.52092,133.02517 l 5.92957,-2.65519 q -32.18903,-63.93599 -45.13247,-131.8841 z"
           id="path1810" />
        <path
           class="link"
           style="fill:#679dcd"
           d="m 697.90975,380.37315 -5.65562,-3.35625 q -82.0259,128.92599 -214.5526,212.64558 l 3.34201,5.66404 Q 616.07039,511.83724 697.90975,380.37315 Z"
           id="path1812" />
        <path
           class="link"
           style="fill:#669ccc"
           d=""
           id="path1814" />
        <path
           class="link"
           style="fill:#659bcb"
           d=""
           id="path1816" />
        <path
           class="link"
           style="fill:#639aca"
           d="m 598.73081,519.30166 3.56203,-5.88837 Q 474.65832,430.51291 400.88262,316.40754 l -5.90791,3.52953 q 73.71441,116.67751 203.7561,199.36459 z"
           id="path1818" />
        <path
           class="link"
           style="fill:#639aca"
           d=""
           id="path1820" />
        <path
           class="link"
           style="fill:#6299c9"
           d=""
           id="path1822" />
        <path
           class="link"
           style="fill:#6198c8"
           d=""
           id="path1824" />
        <path
           class="link"
           style="fill:#6198c8"
           d=""
           id="path1826" />
        <path
           class="link"
           style="fill:#6198c8"
           d="m 741.22603,514.56711 -1.6348,-6.83491 q -193.87789,41.15182 -381.64539,12.71997 l -1.23697,6.91798 q 189.29642,30.27781 384.51716,-12.80304 z"
           id="path1828" />
        <path
           class="link"
           style="fill:#5e95c5"
           d="m 737.71507,508.68113 5.38712,4.93705 q 76.32123,-76.15124 106.09702,-171.2462 l -6.86039,-2.51607 q -30.24253,93.07087 -104.62375,168.82522 z"
           id="path1830" />
        <path
           class="link"
           style="fill:#5d94c4"
           d="m 740.25261,507.43212 0.31204,7.43507 q 87.55183,1.04717 160.11636,-29.75425 l -2.49436,-7.01111 q -71.62699,29.43221 -157.93404,29.33029 z"
           id="path1832" />
        <path
           class="link"
           style="fill:#5d94c4"
           d="m 738.11253,514.0775 4.5922,-5.85569 Q 631.83365,414.77877 569.84615,287.49082 l -6.80342,3.01513 q 61.63007,129.8804 175.0698,223.57155 z"
           id="path1834" />
        <path
           class="link"
           style="fill:#5b93c3"
           d="m 477.59088,589.15349 3.56332,6.68202 q 63.48815,-28.73674 121.5793,-76.41196 l -4.44335,-6.13215 q -58.07773,46.75903 -120.69927,75.86209 z"
           id="path1836" />
        <path
           class="link"
           style="fill:#558dbd"
           d="m 570.16003,287.35171 -7.43118,3.29334 q 54.24249,135.77223 175.17181,223.70261 l 5.01594,-6.39601 Q 624.6728,420.38635 570.16003,287.35171 Z"
           id="path1838" />
        <path
           class="link"
           style="fill:#548cbc"
           d="m 569.21637,285.98628 -5.54385,6.02421 q 55.3431,57.76921 129.53489,90.32355 l 3.74906,-7.27804 q -72.67324,-32.83079 -127.7401,-89.06972 z"
           id="path1840" />
        <path
           class="link"
           style="fill:#548cbc"
           d="m 699.16586,378.97416 -8.16784,-0.55827 Q 675.45677,525.47512 599.2573,656.51493 l 6.92357,4.36915 q 78.65726,-132.3144 92.98499,-281.90992 z"
           id="path1842" />
        <path
           class="link"
           style="fill:#538cbc"
           d="m 598.97656,512.53152 3.07054,7.65191 Q 757.71292,463.70508 848.95724,343.72741 l -6.37645,-5.22694 q -90.65907,117.0997 -243.60423,174.03105 z"
           id="path1844" />
        <path
           class="link"
           style="fill:#518aba"
           d="m 570.08711,286.89154 -7.28533,4.21368 q 104.92757,192.95362 275.37978,320.92085 l 5.23311,-6.59133 Q 675.43775,477.44447 570.08711,286.89154 Z"
           id="path1846" />
        <path
           class="link"
           style="fill:#5189b9"
           d="m 475.30197,591.32198 8.14114,2.34505 q 32.0922,-92.27089 21.88638,-181.09816 l -8.45916,0.46898 q 9.07699,87.19896 -21.56836,178.28413 z"
           id="path1848" />
        <path
           class="link"
           style="fill:#5189b9"
           d="m 604.34649,514.55756 -7.66933,3.59984 q 48.31162,115.78561 136.51439,186.5665 l 5.61305,-6.34594 Q 652.96521,628.1075 604.34649,514.55756 Z"
           id="path1850" />
        <path
           class="link"
           style="fill:#5189b9"
           d="m 570.67277,289.25453 -8.45665,-0.5123 q -12.31518,113.60828 34.30212,229.02791 l 7.98718,-2.82532 Q 559.66631,400.88727 570.67277,289.25453 Z"
           id="path1852" />
        <path
           class="link"
           style="fill:#5088b8"
           d="m 604.40927,654.75497 -3.38038,7.88907 q 66.68891,34.13771 134.0854,43.1063 l 1.76757,-8.39882 q -66.27291,-9.56198 -132.47259,-42.59655 z"
           id="path1854" />
        <path
           class="link"
           style="fill:#4f88b8"
           d="m 602.88912,512.75196 -4.75459,7.21104 q 116.11463,83.31148 242.1414,93.05444 l 1.04438,-8.57407 Q 717.90627,593.76136 602.88912,512.75196 Z"
           id="path1856" />
        <path
           class="link"
           style="fill:#4b84b4"
           d="m 736.32158,512.97979 8.17411,-3.66027 Q 720.4555,442.71345 699.43674,377.65139 l -8.70959,2.08727 q 20.45724,66.14741 45.59443,133.24113 z"
           id="path1858" />
        <path
           class="link"
           style="fill:#4a83b3"
           d=""
           id="path1860" />
        <path
           class="link"
           style="fill:#4982b2"
           d="m 601.07415,511.8117 -1.12464,9.09155 q 163.73504,26.28813 301.18484,-35.04281 l -3.40105,-8.50611 Q 762.42852,536.38696 601.07415,511.8117 Z"
           id="path1862" />
        <path
           class="link"
           style="fill:#4882b2"
           d="m 742.76111,515.10907 -4.70496,-7.91883 q -120.97951,65.0039 -259.00891,80.71022 l 0.6506,9.18809 q 140.59534,-14.57253 263.06327,-81.97948 z"
           id="path1864" />
        <path
           class="link"
           style="fill:#467faf"
           d=""
           id="path1866" />
        <path
           class="link"
           style="fill:#427cac"
           d="m 596.40888,513.73179 8.2059,5.25137 q 92.05297,-132.26297 97.33989,-279.89593 l -9.71301,-0.75562 q -6.36586,144.63435 -95.83278,275.40018 z"
           id="path1868" />
        <path
           class="link"
           style="fill:#427cac"
           d="m 735.91747,513.0359 8.98232,-3.77249 Q 695.2777,375.13256 701.94773,239.16783 L 692.2486,238.251 q -8.21507,138.66907 43.66887,274.7849 z"
           id="path1870" />
        <path
           class="link"
           style="fill:#417bab"
           d="m 740.93366,516.06221 -1.05006,-9.82511 q -66.08538,1.38208 -139.24649,5.18144 l -0.25056,9.87788 q 73.80654,-3.06998 140.54711,-5.23421 z"
           id="path1872" />
        <path
           class="link"
           style="fill:#417bab"
           d="m 595.85411,518.00506 9.31543,-3.29517 Q 570.82503,399.21525 571.37593,289.29713 l -9.86297,-0.59749 q -1.84665,112.18763 34.34115,229.30542 z"
           id="path1874" />
        <path
           class="link"
           style="fill:#3e78a8"
           d="m 699.58889,380.98083 -9.0139,-4.57161 q -40.59159,66.82435 -93.86144,136.615 l 7.59655,6.66652 q 54.84432,-70.15694 95.27879,-138.70991 z"
           id="path1876" />
        <path
           class="link"
           style="fill:#3c76a6"
           d="m 739.58893,516.2475 1.6394,-10.19569 Q 610.20941,478.47799 504.153,408.6394 l -6.10618,8.32792 q 107.6383,72.51976 241.54211,99.28018 z"
           id="path1878" />
        <path
           class="link"
           style="fill:#3671a1"
           d="m 596.44116,512.78517 8.14134,7.14461 q 64.34038,-63.68534 95.32961,-138.78502 l -9.66034,-4.89947 q -31.09735,73.28851 -93.81061,136.53988 z"
           id="path1880" />
        <path
           class="link"
           style="fill:#2d6999"
           d="m 606.29335,516.64326 -11.56304,-0.57156 q -10.20531,74.61617 2.22153,143.12434 l 11.53449,-0.99307 q -11.63921,-67.70618 -2.19298,-141.55971 z"
           id="path1882" />
        <path
           class="link"
           style="fill:#296595"
           d="m 600.66376,510.36775 -0.30386,11.97945 q 74.30626,8.58729 140.68546,-5.23982 l -1.27346,-11.91545 q -65.57881,13.03451 -139.10814,5.17582 z"
           id="path1884" />
        <path
           class="link"
           style="fill:#064575"
           d="m 604.91249,522.43071 -8.80133,-12.14647 q -64.28097,36.4295 -120.26771,75.59244 l 7.05817,13.23564 q 57.3108,-39.06189 122.01087,-76.68161 z"
           id="path1886" />
      </g>
      <g
         class="nodes"
         id="g1988">
        <g
           id="id-1">
          <circle
             r="37.039124"
             style="fill:#c0e5ba;stroke:#38a055;stroke-width:5px"
             cx="600.51184"
             cy="516.35748"
             id="circle1890" />
          <circle
             r="0"
             fill=""
             cx="600.51184"
             cy="516.35748"
             id="circle1892" />
          <circle
             r="0"
             style="fill:#f48074"
             cx="600.51184"
             cy="516.35748"
             id="circle1894" />
        </g>
        <g
           id="id-2">
          <circle
             r="31.510803"
             style="fill:#c3e6bd;stroke:#61b672;stroke-width:3.94308px"
             cx="479.37253"
             cy="592.49451"
             id="circle1897" />
          <circle
             r="0"
             fill=""
             cx="479.37253"
             cy="592.49451"
             id="circle1899" />
          <circle
             r="0"
             style="fill:#f48074"
             cx="479.37253"
             cy="592.49451"
             id="circle1901" />
        </g>
        <g
           id="id-3">
          <circle
             r="31.251089"
             style="fill:#c3e6bd;stroke:#62b672;stroke-width:3.92286px"
             cx="602.71906"
             cy="658.69952"
             id="circle1904" />
          <circle
             r="0"
             fill=""
             cx="602.71906"
             cy="658.69952"
             id="circle1906" />
          <circle
             r="0"
             style="fill:#f48074"
             cx="602.71906"
             cy="658.69952"
             id="circle1908" />
        </g>
        <g
           id="id-4">
          <circle
             r="29.911354"
             style="fill:#c4e7be;stroke:#50ad66;stroke-width:4.39363px"
             cx="740.40863"
             cy="511.14966"
             id="circle1911" />
          <circle
             r="0"
             fill=""
             cx="740.40863"
             cy="511.14966"
             id="circle1913" />
          <circle
             r="0"
             style="fill:#f48074"
             cx="740.40863"
             cy="511.14966"
             id="circle1915" />
        </g>
        <g
           id="id-5">
          <circle
             r="27.486525"
             style="fill:#c5e7bf;stroke:#64b774;stroke-width:3.88178px"
             cx="695.08197"
             cy="378.69501"
             id="circle1918" />
          <circle
             r="0"
             fill=""
             cx="695.08197"
             cy="378.69501"
             id="circle1920" />
          <circle
             r="0"
             style="fill:#f48074"
             cx="695.08197"
             cy="378.69501"
             id="circle1922" />
        </g>
        <g
           id="id-6">
          <circle
             r="26.44021"
             style="fill:#c5e8bf;stroke:#69ba77;stroke-width:3.74588px"
             cx="566.44446"
             cy="288.99838"
             id="circle1925" />
          <circle
             r="0"
             fill=""
             cx="566.44446"
             cy="288.99838"
             id="circle1927" />
          <circle
             r="0"
             style="fill:#f48074"
             cx="566.44446"
             cy="288.99838"
             id="circle1929" />
        </g>
        <g
           id="id-7">
          <circle
             r="24.178503"
             style="fill:#c7e8c1;stroke:#7fc687;stroke-width:3.16821px"
             cx="735.99805"
             cy="701.5509"
             id="circle1932" />
          <circle
             r="0"
             fill=""
             cx="735.99805"
             cy="701.5509"
             id="circle1934" />
          <circle
             r="0"
             style="fill:#f48074"
             cx="735.99805"
             cy="701.5509"
             id="circle1936" />
        </g>
        <g
           id="id-8">
          <circle
             r="22.949495"
             style="fill:#c7e8c1;stroke:#6fbd7b;stroke-width:3.59282px"
             cx="501.09991"
             cy="412.80338"
             id="circle1939" />
          <circle
             r="0"
             fill=""
             cx="501.09991"
             cy="412.80338"
             id="circle1941" />
          <circle
             r="0"
             style="fill:#f48074"
             cx="501.09991"
             cy="412.80338"
             id="circle1943" />
        </g>
        <g
           id="id-9">
          <circle
             r="22.940956"
             style="fill:#c7e8c1;stroke:#74c07f;stroke-width:3.46707px"
             cx="697.09814"
             cy="238.70941"
             id="circle1946" />
          <circle
             r="0"
             fill=""
             cx="697.09814"
             cy="238.70941"
             id="circle1948" />
          <circle
             r="0"
             style="fill:#f48074"
             cx="697.09814"
             cy="238.70941"
             id="circle1950" />
        </g>
        <g
           id="id-10">
          <circle
             r="21.517754"
             style="fill:#c8e9c2;stroke:#7cc485;stroke-width:3.25025px"
             cx="357.32736"
             cy="523.91113"
             id="circle1953" />
          <circle
             r="0"
             fill=""
             cx="357.32736"
             cy="523.91113"
             id="circle1955" />
          <circle
             r="0"
             style="fill:#f48074"
             cx="357.32736"
             cy="523.91113"
             id="circle1957" />
        </g>
        <g
           id="id-11">
          <circle
             r="21.440279"
             style="fill:#c8e9c2;stroke:#74c07f;stroke-width:3.45266px"
             cx="845.76904"
             cy="341.11395"
             id="circle1960" />
          <circle
             r="0"
             fill=""
             cx="845.76904"
             cy="341.11395"
             id="circle1962" />
          <circle
             r="0"
             style="fill:#f48074"
             cx="845.76904"
             cy="341.11395"
             id="circle1964" />
        </g>
        <g
           id="id-12">
          <circle
             r="20.932859"
             style="fill:#c8e9c2;stroke:#7ec586;stroke-width:3.21117px"
             cx="899.43384"
             cy="481.60739"
             id="circle1967" />
          <circle
             r="0"
             fill=""
             cx="899.43384"
             cy="481.60739"
             id="circle1969" />
          <circle
             r="0"
             style="fill:#f48074"
             cx="899.43384"
             cy="481.60739"
             id="circle1971" />
        </g>
        <g
           id="id-13">
          <circle
             r="20.453049"
             style="fill:#c9e9c3;stroke:#87ca8c;stroke-width:2.98384px"
             cx="397.92868"
             cy="318.1723"
             id="circle1974" />
          <circle
             r="0"
             fill=""
             cx="397.92868"
             cy="318.1723"
             id="circle1976" />
          <circle
             r="0"
             style="fill:#f48074"
             cx="397.92868"
             cy="318.1723"
             id="circle1978" />
        </g>
        <g
           id="id-14">
          <circle
             r="19.767097"
             style="fill:#c9e9c3;stroke:#81c688;stroke-width:3.13956px"
             cx="840.7981"
             cy="608.73041"
             id="circle1981" />
          <circle
             r="0"
             fill=""
             cx="840.7981"
             cy="608.73041"
             id="circle1983" />
          <circle
             r="0"
             style="fill:#f48074"
             cx="840.7981"
             cy="608.73041"
             id="circle1985" />
        </g>
      </g>
    </g>
  </g>
  <g
     id="labelsContainer"
     transform="translate(-364.44193,-209.52596)">
    <g
       class="network labels"
       id="g2021">
      <text
         class="label"
         text-anchor="start"
         style="fill:#000000;stroke:#ffffff;stroke-width:2px;stroke-linecap:square;stroke-linejoin:round;paint-order:stroke"
         x="665.32452"
         y="551.07404"
         dx="38.388042"
         visibility="visible"
         id="text1993">(0, 80), (0, 155), (0, 3862...</text>
      <text
         class="label"
         text-anchor="start"
         style="fill:#000000;stroke:#ffffff;stroke-width:2px;stroke-linecap:square;stroke-linejoin:round;paint-order:stroke"
         x="528.46771"
         y="637.0896"
         dx="32.564598"
         visibility="visible"
         id="text1995">(2, 79), (2, 48), (0, 12533...</text>
      <text
         class="label"
         text-anchor="start"
         style="fill:#000000;stroke:#ffffff;stroke-width:2px;stroke-linecap:square;stroke-linejoin:round;paint-order:stroke"
         x="667.81818"
         y="711.88452"
         dx="32.291019"
         visibility="visible"
         id="text1997">(0, 453), (2, 122), (0, 174...</text>
      <text
         class="label"
         text-anchor="start"
         style="fill:#000000;stroke:#ffffff;stroke-width:2px;stroke-linecap:square;stroke-linejoin:round;paint-order:stroke"
         x="823.37256"
         y="545.19049"
         dx="30.879763"
         visibility="visible"
         id="text1999">(0, 17406), (2, 88), (0, 16...</text>
      <text
         class="label"
         text-anchor="start"
         style="fill:#000000;stroke:#ffffff;stroke-width:2px;stroke-linecap:square;stroke-linejoin:round;paint-order:stroke"
         x="772.16486"
         y="395.55026"
         dx="28.325485"
         visibility="visible"
         id="text2001">(2, 52), (0, 307), (2, 80),...</text>
      <text
         class="label"
         text-anchor="start"
         style="fill:#000000;stroke:#ffffff;stroke-width:2px;stroke-linecap:square;stroke-linejoin:round;paint-order:stroke"
         x="626.83698"
         y="294.21573"
         dx="27.223316"
         visibility="visible"
         id="text2003">(0, 131), (0, 18256), (0, 1...</text>
      <text
         class="label"
         text-anchor="start"
         style="fill:#000000;stroke:#ffffff;stroke-width:2px;stroke-linecap:square;stroke-linejoin:round;paint-order:stroke"
         x="818.38971"
         y="760.29584"
         dx="24.840868"
         visibility="visible"
         id="text2005">(0, 65), (0, 90), (0, 2113)...</text>
      <text
         class="label"
         text-anchor="start"
         style="fill:#000000;stroke:#ffffff;stroke-width:2px;stroke-linecap:square;stroke-linejoin:round;paint-order:stroke"
         x="553.01416"
         y="434.08405"
         dx="23.546251"
         visibility="visible"
         id="text2007">(0, 8814), (2, 130), (2, 38...</text>
      <text
         class="label"
         text-anchor="start"
         style="fill:#000000;stroke:#ffffff;stroke-width:2px;stroke-linecap:square;stroke-linejoin:round;paint-order:stroke"
         x="774.44263"
         y="237.4019"
         dx="23.537256"
         visibility="visible"
         id="text2009">(0, 15549), (0, 233), (0, 1...</text>
      <text
         class="label"
         text-anchor="start"
         style="fill:#000000;stroke:#ffffff;stroke-width:2px;stroke-linecap:square;stroke-linejoin:round;paint-order:stroke"
         x="390.58752"
         y="559.60779"
         dx="22.038076"
         visibility="visible"
         id="text2011">(0, 130), (0, 17054), (0, 1...</text>
      <text
         class="label"
         text-anchor="start"
         style="fill:#000000;stroke:#ffffff;stroke-width:2px;stroke-linecap:square;stroke-linejoin:round;paint-order:stroke"
         x="942.40314"
         y="353.09314"
         dx="21.956467"
         visibility="visible"
         id="text2013">(0, 13857), (0, 135), (0, 1...</text>
      <text
         class="label"
         text-anchor="start"
         style="fill:#000000;stroke:#ffffff;stroke-width:2px;stroke-linecap:square;stroke-linejoin:round;paint-order:stroke"
         x="1003.0308"
         y="511.81522"
         dx="21.421959"
         visibility="visible"
         id="text2015">(2, 131), (0, 9798), (0, 97...</text>
      <text
         class="label"
         text-anchor="start"
         style="fill:#000000;stroke:#ffffff;stroke-width:2px;stroke-linecap:square;stroke-linejoin:round;paint-order:stroke"
         x="436.45676"
         y="327.1749"
         dx="20.916534"
         visibility="visible"
         id="text2017">(0, 110), (0, 9694), (0, 98...</text>
      <text
         class="label"
         text-anchor="start"
         style="fill:#000000;stroke:#ffffff;stroke-width:2px;stroke-linecap:square;stroke-linejoin:round;paint-order:stroke"
         x="936.78729"
         y="655.43207"
         dx="20.193964"
         visibility="visible"
         id="text2019">(0, 18097), (2, 105), (2, 7...</text>
    </g>
  </g>
</svg>
